<?xml version="1.0" encoding="UTF-8"?>
<svg width="800" height="600" version="1.1" viewBox="0 0 800 600" xmlns="http://www.w3.org/2000/svg">
 <rect width="800" height="600" fill="#1f2937"/>
 <g fill="#4b5563">
  <path d="m400 250c-41.421 0-75 33.579-75 75s33.579 75 75 75 75-33.579 75-75-33.579-75-75-75zm0 125c-27.614 0-50-22.386-50-50s22.386-50 50-50 50 22.386 50 50-22.386 50-50 50z"/>
  <path d="m400 200c-69.036 0-125 55.964-125 125s55.964 125 125 125 125-55.964 125-125-55.964-125-125-125zm0 225c-55.228 0-100-44.772-100-100s44.772-100 100-100 100 44.772 100 100-44.772 100-100 100z"/>
  <path d="m400 150c-96.837 0-175 78.163-175 175s78.163 175 175 175 175-78.163 175-175-78.163-175-175-175zm0 325c-82.843 0-150-67.157-150-150s67.157-150 150-150 150 67.157 150 150-67.157 150-150 150z"/>
 </g>
 <text x="400" y="350" text-anchor="middle" fill="#9ca3af" font-family="system-ui" font-size="24">Image not available</text>
</svg> 